<?xml version="1.0" standalone="no"?>
<!DOCTYPE svg PUBLIC "-//W3C//DTD SVG 20010904//EN"
 "http://www.w3.org/TR/2001/REC-SVG-20010904/DTD/svg10.dtd">
<svg version="1.0" xmlns="http://www.w3.org/2000/svg"
 width="1000.000000pt" height="1000.000000pt" viewBox="0 0 1000.000000 1000.000000"
 preserveAspectRatio="xMidYMid meet">
<metadata>
Created by potrace 1.14, written by Peter Selinger 2001-2017
</metadata>
<g transform="translate(0.000000,1000.000000) scale(0.100000,-0.100000)"
fill="#000000" stroke="none">
<path d="M2855 8264 c-391 -32 -739 -130 -1064 -300 -256 -133 -461 -285 -677
-499 -230 -228 -379 -428 -515 -689 -143 -275 -217 -502 -294 -896 -108 -551
-52 -1144 157 -1640 279 -664 934 -1288 1817 -1729 611 -306 1107 -462 1599
-502 l152 -13 21 -65 c132 -402 549 -666 964 -612 356 47 647 293 756 636 78
248 34 540 -117 767 l-46 68 24 20 c54 47 288 221 353 263 117 75 235 134 335
168 86 30 106 33 205 32 l110 0 270 -125 c149 -69 457 -212 685 -318 228 -106
530 -246 670 -310 140 -65 397 -185 570 -266 272 -128 322 -148 365 -149 248
-1 524 455 574 950 10 98 2 219 -16 235 -4 4 -116 50 -248 103 -132 53 -430
173 -662 266 -233 94 -613 248 -845 342 -233 93 -520 209 -638 256 -118 47
-223 93 -233 102 -30 25 -103 142 -131 208 -81 193 -140 519 -166 911 l-11
162 27 60 c24 55 26 67 20 138 -9 107 -47 268 -91 387 -179 481 -609 941
-1242 1328 -158 96 -511 274 -698 351 -397 163 -833 279 -1265 336 -150 20
-584 34 -715 24z m3910 -3227 c34 -337 100 -568 191 -676 14 -17 25 -33 23
-35 -2 -1 -35 -20 -74 -40 -99 -54 -136 -86 -205 -178 -120 -159 -201 -372
-204 -533 l-1 -90 -51 -6 c-68 -9 -114 -24 -209 -72 -163 -81 -397 -256 -593
-442 -91 -87 -132 -115 -119 -82 4 11 1158 2604 1196 2687 15 34 16 28 22
-168 4 -112 15 -277 24 -365z m-1640 -1966 c374 -111 616 -455 592 -839 -13
-204 -88 -372 -231 -520 -308 -320 -818 -333 -1142 -30 -114 107 -183 220
-230 375 -23 76 -27 107 -28 223 0 111 3 149 22 213 87 302 319 522 627 593
88 20 299 12 390 -15z"/>
<path d="M4676 3017 c61 -21 101 -55 129 -111 75 -151 -27 -316 -196 -316 -64
0 -141 39 -175 90 -34 49 -30 23 5 -32 34 -53 69 -80 134 -102 59 -20 80 -20
143 -1 63 18 125 71 153 130 25 54 28 149 5 203 -31 76 -112 136 -196 147
l-43 5 41 -13z"/>
</g>
</svg>
